HIERARCHY
ROOT Hips
{
  OFFSET -213.699 104.721 0.752556
  CHANNELS 6 Xposition Yposition Zposition Zrotation Xrotation Yrotation
  JOINT RightUpLeg
  {
    OFFSET -8.9458 -8.66707 0.101652
    CHANNELS 3 Zrotation Xrotation Yrotation
    JOINT RightLeg
    {
      OFFSET 0 -44.4227 1.3727
      CHANNELS 3 Zrotation Xrotation Yrotation
      JOINT RightFoot
      {
        OFFSET 0.253549 -42.0924 -1.46059
        CHANNELS 3 Zrotation Xrotation Yrotation
        JOINT RightToes
        {
          OFFSET 0.04 -4.41509 8.4991
          CHANNELS 3 Zrotation Xrotation Yrotation
          End Site
          {
            OFFSET -0.08 -0.137448 9.77979
          }
        }
      }
    }
  }
  JOINT Spine
  {
    OFFSET 0 11.8905 0
    CHANNELS 3 Zrotation Xrotation Yrotation
    JOINT Spine1
    {
      OFFSET 0 25.6574 0.127663
      CHANNELS 3 Zrotation Xrotation Yrotation
      JOINT HEad
      {
        OFFSET 0 8.73416 0.011341
        CHANNELS 3 Zrotation Xrotation Yrotation
        End Site
        {
          OFFSET -0.29 12.7742 2.51395
        }
      }
      JOINT LeftShoulder1
      {
        OFFSET 8.99 -0.362252 -0.22
        CHANNELS 3 Zrotation Xrotation Yrotation
        JOINT LeftArm
        {
          OFFSET 10.2827 -0.00337999 0.322123
          CHANNELS 3 Zrotation Xrotation Yrotation
          JOINT LeftForeArm
          {
            OFFSET 26.2597 0.099144 -1.42434
            CHANNELS 3 Zrotation Xrotation Yrotation
            JOINT LeftHand
            {
              OFFSET 22.0902 0.085362 1.02216
              CHANNELS 3 Zrotation Xrotation Yrotation
              End Site
              {
                OFFSET 13.419 -0.6 1.50291
              }
            }
          }
        }
      }
      JOINT RightShoulder
      {
        OFFSET -8.99 -0.362252 -0.22
        CHANNELS 3 Zrotation Xrotation Yrotation
        JOINT RightArm
        {
          OFFSET -10.2827 -0.00338 0.322123
          CHANNELS 3 Zrotation Xrotation Yrotation
          JOINT RightForeArm
          {
            OFFSET -26.364 0.099144 -1.42434
            CHANNELS 3 Zrotation Xrotation Yrotation
            JOINT RightHand
            {
              OFFSET -22.0324 0.085362 1.02216
              CHANNELS 3 Zrotation Xrotation Yrotation
              End Site
              {
                OFFSET -13.3284 -0.6 1.50291
              }
            }
          }
        }
      }
    }
  }
  JOINT LeftUpLeg
  {
    OFFSET 8.9458 -8.66707 0.101652
    CHANNELS 3 Zrotation Xrotation Yrotation
    JOINT LeftLeg
    {
      OFFSET 0 -44.4227 1.3727
      CHANNELS 3 Zrotation Xrotation Yrotation
      JOINT LeftFoot
      {
        OFFSET -0.253549 -42.0924 -1.46059
        CHANNELS 3 Zrotation Xrotation Yrotation
        JOINT LeftToes
        {
          OFFSET -0.04 -4.41509 8.4991
          CHANNELS 3 Zrotation Xrotation Yrotation
          End Site
          {
            OFFSET 0.08 -0.047448 9.77979
          }
        }
      }
    }
  }
}
MOTION
Frames:	19
Frame Time:	0.0333333
32.4209 144.758 54.3864 0.0253977 -6.58019 -15.5947 3.76664 -15.1826 8.51998 -0.653142 32.0856 -6.11515 15.1717 -2.85987 -0.78151 0.0462048 0.000530889 0.662642 0.407917 10.7865 -2.92598 5.50018 3.77504 -3.84932 0.416592 29.8733 -7.58711 -32.3453 -3.54888 12.7312 -74.0993 -36.6966 -37.0705 -175.732 59.1569 171.492 10.4412 8.77678 -8.09497 30.7184 -1.15695 -7.23883 46.8582 -20.9366 13.8594 5.73853 59.8042 9.6482 -2.44556 9.78978 2.23178 -1.84257 -13.2317 13.4599 1.347 68.8593 4.61539 11.6242 -1.66598 -0.615382 -1.33205e-009 8.7521e-006 -1.46422e-008 
31.8937 144.682 56.3214 -0.271904 -6.85439 -16.6978 4.13947 -13.973 8.88547 -0.628916 33.0374 -5.32354 14.9824 -4.36986 -0.584502 0.0462048 0.000530889 0.662642 0.562633 11.1054 -2.70008 5.63614 3.68614 -3.55723 1.28568 30.2072 -8.45398 -32.4693 -3.62601 12.9004 -74.0712 -37.0625 -36.5655 -175.865 58.6465 171.823 10.3379 8.79638 -8.00393 30.7318 -1.16102 -7.24853 47.177 -20.9604 14.4948 5.68801 59.9095 9.66103 -2.55363 9.78193 2.28357 -1.42233 -16.3816 12.2472 1.59716 72.3837 4.44984 11.7443 -2.57938 -0.524679 -1.33205e-009 8.7521e-006 -1.46422e-008 
31.4106 144.782 58.261 -0.380051 -7.05325 -18.2579 4.35578 -12.5758 9.96271 -0.606339 33.2902 -4.77052 14.8661 -5.43938 -0.448386 0.0462048 0.000530889 0.662642 0.761518 11.203 -2.34674 5.25826 3.60746 -3.08085 1.81026 30.5938 -9.07153 -32.7323 -3.76863 13.2026 -73.8033 -37.4686 -36.1957 -176.008 58.1005 172.134 10.2789 8.80738 -7.95336 30.6318 -1.10993 -7.11943 47.6804 -21.1552 14.9866 5.5521 60.0979 9.70469 -2.70526 9.77096 2.34802 -1.50623 -19.0875 10.7742 1.69639 72.9917 4.79194 11.7713 -4.52195 -0.313223 -1.33205e-009 8.7521e-006 -1.46422e-008 
30.982 144.923 60.1534 -0.516738 -7.2023 -20.03 4.40633 -11.1543 10.7814 -0.570688 33.2717 -3.91144 14.7595 -6.46628 -0.319502 0.0462048 0.000530889 0.662642 1.17872 11.2853 -2.02628 4.60469 3.57208 -2.58539 1.99161 30.6679 -9.33286 -32.9111 -3.87683 13.4343 -73.406 -37.9992 -35.7219 -175.959 58.1203 172.235 10.3623 8.79805 -7.94887 30.4828 -1.02056 -6.88972 47.9917 -20.5978 15.3089 5.15502 59.6103 10.2413 -2.77623 9.76524 2.4125 -1.78708 -21.3971 8.90442 1.61304 71.2182 5.63993 11.968 -5.64364 -0.194046 -1.33205e-009 8.7521e-006 -1.46422e-008 
30.5816 145.106 61.9986 -0.628882 -7.35649 -21.8329 4.20869 -9.641 11.2566 -0.51785 32.9539 -2.69124 14.6327 -7.33764 -0.211224 0.0462048 0.000530889 0.662642 1.43115 11.3776 -1.77294 4.02653 3.57616 -2.21399 2.082 30.5871 -9.39689 -32.9426 -3.92736 13.555 -72.9351 -38.5889 -35.1398 -175.746 58.6606 172.131 10.4807 8.78361 -7.95697 30.3188 -0.947869 -6.70521 48.0114 -19.0392 15.5315 4.52722 58.4116 11.2829 -2.68178 9.77033 2.50039 -2.3124 -23.0848 6.48605 1.41887 67.2925 6.88304 12.1884 -6.21886 -0.132731 -1.33205e-009 8.7521e-006 -1.46422e-008 
30.1923 145.311 63.8061 -0.628884 -7.40683 -23.6426 3.91909 -8.21646 12.0606 -0.471981 32.4373 -1.70653 14.4308 -7.94518 -0.137165 0.0462048 0.000530889 0.662642 1.36075 11.3367 -1.56289 3.7007 3.5774 -1.99291 2.03322 30.6486 -9.4055 -33.03 -4.0069 13.7344 -72.4209 -39.1074 -34.7377 -175.604 58.9948 172.087 10.4603 8.78688 -7.94606 30.1488 -0.912495 -6.62244 47.7934 -16.8767 15.6461 3.72195 56.6653 12.6208 -2.49314 9.7817 2.61185 -3.04934 -24.0996 3.44841 1.20736 61.2998 7.80394 12.3777 -6.5343 -0.0988141 -1.33205e-009 8.7521e-006 -1.46422e-008 
29.8263 145.48 65.5837 -0.533141 -7.2528 -25.563 3.66877 -7.1119 13.3419 -0.445996 31.9888 -1.15029 14.0148 -8.54738 -0.067724 0.0462048 0.000530889 0.662642 1.17365 11.1416 -1.37772 3.5167 3.55403 -1.85196 1.69154 30.7547 -9.31417 -33.2543 -4.14469 14.0242 -71.9968 -39.5885 -34.6318 -175.631 58.7556 172.325 10.2772 8.80782 -7.9505 30.0235 -0.88435 -6.55515 47.4106 -14.7188 15.7241 2.95875 54.6807 13.8782 -2.36721 9.78968 2.67087 -3.77317 -24.4834 -0.131195 0.978362 53.6006 7.12921 12.591 -6.475 -0.107966 -1.33205e-009 8.7521e-006 -1.46422e-008 
29.4955 145.576 67.3441 -0.436958 -7.03356 -27.7246 3.39318 -6.23852 14.7265 -0.41612 31.781 -0.471389 13.5239 -9.36902 0.0216304 0.0462048 0.000530889 0.662642 1.04227 10.9992 -1.21276 3.2643 3.52978 -1.70876 1.25267 30.5925 -9.07116 -33.4214 -4.25073 14.2466 -71.6825 -40.147 -34.5196 -175.679 58.3423 172.702 10.0742 8.82594 -8.01922 29.9694 -0.837451 -6.42962 47.0105 -12.9894 15.9516 2.53027 53.0127 14.6809 -2.3605 9.79027 2.66138 -4.30084 -24.1127 -4.19631 0.699189 44.8729 4.70254 12.6218 -6.18386 -0.142962 -1.33205e-009 8.7521e-006 -1.46422e-008 
29.1894 145.561 69.1215 -0.441512 -6.98333 -30.1442 3.055 -5.36442 16.2018 -0.370687 31.938 0.597074 13.3555 -10.366 0.131193 0.0462048 0.000530889 0.662642 0.958603 11.0897 -1.07496 2.88705 3.52693 -1.54233 1.03071 30.1744 -8.77574 -33.4167 -4.2696 14.2952 -71.2399 -40.7286 -34.1315 -175.655 58.2168 172.911 9.99749 8.82773 -8.10993 29.9258 -0.782411 -6.28026 46.8218 -11.91 16.3981 2.47968 52.1814 14.9413 -2.40895 9.78687 2.6642 -4.66027 -23.0171 -8.97161 0.459557 36.2994 2.35681 11.9673 -5.26879 -0.235165 -1.33205e-009 8.7521e-006 -1.46422e-008 
28.8779 145.406 70.9604 -0.555761 -7.13505 -32.7002 2.71577 -4.43536 17.9959 -0.331355 32.516 1.58674 13.4998 -11.525 0.266284 0.0462048 0.000530889 0.662642 0.834583 11.3275 -0.965777 2.47993 3.55331 -1.38274 1.00909 29.8642 -8.58892 -33.3873 -4.26586 14.2938 -70.5252 -41.1735 -33.6411 -175.615 58.343 172.87 10.0578 8.81794 -8.1441 29.8469 -0.741022 -6.1711 46.9526 -11.5638 16.9056 2.56904 52.2253 14.8897 -2.49311 9.78074 2.68648 -4.98365 -21.7379 -14.227 0.403474 29.643 1.64388 10.3339 -3.14253 -0.40351 -1.33205e-009 8.7521e-006 -1.46422e-008 
28.5288 145.148 72.8765 -0.718174 -7.29846 -35.3097 2.39493 -3.56689 19.9387 -0.303295 33.3703 2.2953 13.5225 -12.9444 0.428762 0.0462048 0.000530889 0.662642 0.64263 11.4375 -0.861068 2.12058 3.66587 -1.23182 0.978581 29.9208 -8.58397 -33.4606 -4.30816 14.3799 -69.7459 -41.4896 -33.3387 -175.602 58.458 172.771 10.1524 8.80799 -8.12674 29.7723 -0.712292 -6.09646 47.2488 -11.7542 17.2557 2.5703 52.6261 14.8214 -2.65335 9.77029 2.63918 -5.27575 -20.8892 -18.1026 0.400362 26.0057 1.23349 8.08919 -0.55306 -0.515329 -1.33205e-009 8.7521e-006 -1.46422e-008 
28.1139 144.884 74.8733 -0.921058 -7.2843 -38.0165 2.06127 -2.77595 21.7359 -0.264703 34.1407 3.22922 13.3377 -14.4205 0.587447 0.0462048 0.000530889 0.662642 0.462838 11.2047 -0.749023 1.81955 3.93987 -1.07327 0.849357 30.2659 -8.67012 -33.5779 -4.3913 14.5559 -69.0953 -41.8416 -33.1493 -175.583 58.5016 172.771 10.2081 8.80372 -8.11243 29.7352 -0.680637 -6.01073 47.4339 -11.9661 17.3465 2.51101 52.7631 14.8327 -2.8046 9.76154 2.5268 -5.39439 -20.3767 -18.8187 0.305713 24.683 -1.00526 6.07077 1.45343 -0.509054 -1.33205e-009 8.7521e-006 -1.46422e-008 
27.6152 144.662 76.954 -1.17745 -7.07177 -40.7928 1.7245 -1.98773 23.4481 -0.210869 34.6325 4.52243 13.259 -15.5262 0.707789 0.0462048 0.000530889 0.662642 0.300518 10.6783 -0.682847 1.59725 4.3191 -0.968183 0.628423 30.6562 -8.66779 -33.6822 -4.49088 14.7753 -68.4337 -42.3069 -32.7982 -175.52 58.6308 172.787 10.2367 8.80495 -8.10451 29.7346 -0.652817 -5.93313 47.3645 -11.8598 17.231 2.57052 52.5575 14.8076 -2.76542 9.76533 2.45417 -5.41343 -19.6688 -17.6105 0.180714 24.3251 -4.21155 5.01965 3.33122 -0.517652 -1.33205e-009 8.7521e-006 -1.46422e-008 
27.0445 144.426 79.0631 -1.43331 -6.77587 -43.52 1.44729 -1.46844 25.072 -0.163808 35.486 5.71819 13.2887 -16.2432 0.791051 0.0462048 0.000530889 0.662642 -0.0403235 10.1837 -0.688176 1.49866 4.58667 -0.982813 0.443944 30.8821 -8.56238 -33.7631 -4.57051 14.9509 -67.6753 -42.8414 -32.2807 -175.395 58.9675 172.72 10.2427 8.80884 -8.08063 29.8144 -0.660204 -5.94832 47.1799 -11.8173 17.0638 2.77998 52.6247 14.6156 -2.55063 9.78023 2.42519 -5.65237 -18.8159 -16.9743 0.129347 24.6475 -5.70827 4.97337 5.85195 -0.637618 -1.33205e-009 8.7521e-006 -1.46422e-008 
26.448 144.11 81.0891 -1.63163 -6.52885 -46.3465 1.26535 -2.04165 26.0863 -0.076401 38.2171 7.35415 13.2188 -16.6548 0.833044 0.0462048 0.000530889 0.662642 -0.729089 10.0453 -0.636761 1.46448 4.59264 -0.993767 0.617798 30.8142 -8.56561 -33.6709 -4.53789 14.8958 -67.117 -43.4317 -31.8106 -175.2 59.4386 172.68 10.1925 8.81259 -8.06812 30.0031 -0.705156 -6.06027 47.2382 -12.5295 16.972 3.0073 53.5703 14.2304 -2.41561 9.79032 2.3445 -6.11154 -18.2853 -17.1343 0.179363 25.9787 -4.52685 5.60004 8.08079 -0.832488 -1.33205e-009 8.7521e-006 -1.46422e-008 
25.8591 143.756 82.9726 -1.7531 -6.46687 -49.6588 1.05817 -4.42801 26.0229 0.151065 43.7824 10.7041 13.3602 -15.713 0.73689 0.0462048 0.000530889 0.662642 -1.7852 10.2841 -0.387348 1.26749 4.44787 -0.807253 1.22863 30.4459 -8.71012 -33.2467 -4.34345 14.5275 -66.8818 -44.0593 -31.4264 -174.979 59.8745 172.771 10.1129 8.81328 -8.11555 30.1873 -0.734442 -6.12832 47.743 -13.7634 16.9451 3.18475 55.0089 13.7644 -2.50951 9.78594 2.2015 -6.51167 -18.091 -16.3266 0.275626 28.0178 -2.12023 6.86718 8.47895 -1.02999 -1.33205e-009 8.7521e-006 -1.46422e-008 
25.2555 143.424 84.7582 -1.84473 -6.68905 -53.422 0.639219 -8.27564 24.8929 0.34528 50.9984 14.6901 14.3497 -11.9562 0.338375 0.0462048 0.000530889 0.662642 -3.13344 10.6971 -0.0624069 0.81981 4.32985 -0.531181 1.70667 29.9282 -8.6227 -32.69 -4.11286 14.0963 -66.4798 -44.5747 -31.0327 -174.819 60.2102 172.811 10.0982 8.80741 -8.2163 30.2313 -0.711676 -6.0624 48.3997 -14.2376 16.8653 3.35463 55.7197 13.4523 -2.68058 9.77648 2.08539 -6.81822 -17.8082 -13.9963 0.364707 30.043 0.0118694 8.72368 7.2114 -1.18832 -1.33205e-009 8.7521e-006 -1.46422e-008 
24.5955 143.139 86.5127 -2.08776 -7.02852 -56.9611 -0.0375501 -12.1809 22.4412 0.356472 57.2323 15.3915 15.8882 -6.59075 -0.313931 0.0462048 0.000530889 0.662642 -4.37831 11.1516 0.0188835 0.487185 4.219 -0.519459 1.50096 29.4814 -8.10607 -32.4108 -4.01254 13.9139 -65.6197 -44.8603 -30.8163 -174.749 60.469 172.654 10.1524 8.79611 -8.27723 30.1957 -0.684307 -5.9895 48.7199 -13.2814 16.6346 3.47418 55.0808 13.5051 -2.72952 9.77292 2.04397 -7.06525 -17.1863 -11.1836 0.42822 31.7158 1.38399 10.4601 5.66957 -1.2684 -1.33205e-009 8.7521e-006 -1.46422e-008 
23.8555 142.983 88.2093 -2.55524 -7.16319 -59.7618 -0.88349 -14.9346 18.5245 0.142241 60.4949 10.7304 15.7146 -3.36522 -0.733133 0.0462048 0.000530889 0.662642 -5.13594 11.5914 -0.207895 0.59874 4.08289 -0.845065 0.946057 29.2792 -7.66051 -32.442 -4.01932 13.9228 -65.0553 -45.0713 -31.2382 -174.709 60.5761 172.627 10.1682 8.80288 -8.16943 30.2431 -0.713984 -6.06788 48.6684 -11.9351 16.222 3.42669 53.9155 13.8307 -2.67436 9.77126 2.05075 -6.98286 -16.2722 -8.51387 0.457723 32.8971 1.94787 11.3503 4.48533 -1.24888 -1.33205e-009 8.7521e-006 -1.46422e-008 
